<mxfile host="app.diagrams.net" modified="2023-09-11T12:01:35.551Z" agent="Mozilla/5.0 (Windows NT 10.0; Win64; x64) AppleWebKit/537.36 (KHTML, like Gecko) Chrome/116.0.0.0 Safari/537.36" etag="3ujm4aZYuyJgmAvd5fAF" version="21.7.4" type="device">
  <diagram name="Page-1" id="WBv1_vGH2hpFxPR1fmRP">
    <mxGraphModel dx="1379" dy="565" grid="1" gridSize="10" guides="1" tooltips="1" connect="1" arrows="1" fold="1" page="1" pageScale="1" pageWidth="827" pageHeight="1169" math="0" shadow="0">
      <root>
        <mxCell id="0" />
        <mxCell id="1" parent="0" />
        <mxCell id="pZLTnKAxev1ahuGTwD0k-3" value="" style="edgeStyle=orthogonalEdgeStyle;rounded=0;orthogonalLoop=1;jettySize=auto;html=1;" parent="1" source="pZLTnKAxev1ahuGTwD0k-1" target="pZLTnKAxev1ahuGTwD0k-2" edge="1">
          <mxGeometry relative="1" as="geometry" />
        </mxCell>
        <mxCell id="pZLTnKAxev1ahuGTwD0k-1" value="Travel Agency website" style="rounded=0;whiteSpace=wrap;html=1;" parent="1" vertex="1">
          <mxGeometry x="16" y="224" width="120" height="70" as="geometry" />
        </mxCell>
        <mxCell id="pZLTnKAxev1ahuGTwD0k-37" style="edgeStyle=orthogonalEdgeStyle;rounded=0;orthogonalLoop=1;jettySize=auto;html=1;exitX=0.5;exitY=0;exitDx=0;exitDy=0;entryX=0.5;entryY=1;entryDx=0;entryDy=0;" parent="1" source="pZLTnKAxev1ahuGTwD0k-2" target="pZLTnKAxev1ahuGTwD0k-28" edge="1">
          <mxGeometry relative="1" as="geometry" />
        </mxCell>
        <mxCell id="pZLTnKAxev1ahuGTwD0k-42" style="edgeStyle=orthogonalEdgeStyle;rounded=0;orthogonalLoop=1;jettySize=auto;html=1;exitX=0.5;exitY=0;exitDx=0;exitDy=0;entryX=0;entryY=0.5;entryDx=0;entryDy=0;" parent="1" source="pZLTnKAxev1ahuGTwD0k-2" target="pZLTnKAxev1ahuGTwD0k-16" edge="1">
          <mxGeometry relative="1" as="geometry">
            <Array as="points">
              <mxPoint x="233" y="190" />
              <mxPoint x="350" y="190" />
              <mxPoint x="350" y="70" />
              <mxPoint x="650" y="70" />
            </Array>
          </mxGeometry>
        </mxCell>
        <mxCell id="FNrYfJHVqpBhXh7npqyi-1" style="edgeStyle=orthogonalEdgeStyle;rounded=0;orthogonalLoop=1;jettySize=auto;html=1;exitX=1;exitY=0.5;exitDx=0;exitDy=0;entryX=0;entryY=0.5;entryDx=0;entryDy=0;" edge="1" parent="1" source="pZLTnKAxev1ahuGTwD0k-2" target="pZLTnKAxev1ahuGTwD0k-4">
          <mxGeometry relative="1" as="geometry" />
        </mxCell>
        <mxCell id="FNrYfJHVqpBhXh7npqyi-2" style="edgeStyle=orthogonalEdgeStyle;rounded=0;orthogonalLoop=1;jettySize=auto;html=1;exitX=1;exitY=0.5;exitDx=0;exitDy=0;entryX=0;entryY=0.5;entryDx=0;entryDy=0;" edge="1" parent="1" source="pZLTnKAxev1ahuGTwD0k-2" target="pZLTnKAxev1ahuGTwD0k-6">
          <mxGeometry relative="1" as="geometry" />
        </mxCell>
        <mxCell id="FNrYfJHVqpBhXh7npqyi-3" style="edgeStyle=orthogonalEdgeStyle;rounded=0;orthogonalLoop=1;jettySize=auto;html=1;exitX=1;exitY=0.5;exitDx=0;exitDy=0;entryX=0;entryY=0.5;entryDx=0;entryDy=0;" edge="1" parent="1" source="pZLTnKAxev1ahuGTwD0k-2" target="pZLTnKAxev1ahuGTwD0k-8">
          <mxGeometry relative="1" as="geometry" />
        </mxCell>
        <mxCell id="FNrYfJHVqpBhXh7npqyi-4" style="edgeStyle=orthogonalEdgeStyle;rounded=0;orthogonalLoop=1;jettySize=auto;html=1;exitX=1;exitY=0.5;exitDx=0;exitDy=0;entryX=0;entryY=0.5;entryDx=0;entryDy=0;" edge="1" parent="1" source="pZLTnKAxev1ahuGTwD0k-2" target="pZLTnKAxev1ahuGTwD0k-9">
          <mxGeometry relative="1" as="geometry" />
        </mxCell>
        <mxCell id="pZLTnKAxev1ahuGTwD0k-2" value="Travel Agency core" style="rounded=0;whiteSpace=wrap;html=1;" parent="1" vertex="1">
          <mxGeometry x="173" y="224" width="120" height="70" as="geometry" />
        </mxCell>
        <mxCell id="pZLTnKAxev1ahuGTwD0k-17" value="" style="edgeStyle=orthogonalEdgeStyle;rounded=0;orthogonalLoop=1;jettySize=auto;html=1;" parent="1" source="pZLTnKAxev1ahuGTwD0k-4" edge="1">
          <mxGeometry relative="1" as="geometry">
            <mxPoint x="677" y="134" as="targetPoint" />
          </mxGeometry>
        </mxCell>
        <mxCell id="pZLTnKAxev1ahuGTwD0k-24" style="edgeStyle=orthogonalEdgeStyle;rounded=0;orthogonalLoop=1;jettySize=auto;html=1;exitX=0.5;exitY=1;exitDx=0;exitDy=0;entryX=0.5;entryY=0;entryDx=0;entryDy=0;shape=link;" parent="1" source="pZLTnKAxev1ahuGTwD0k-4" target="pZLTnKAxev1ahuGTwD0k-6" edge="1">
          <mxGeometry relative="1" as="geometry" />
        </mxCell>
        <mxCell id="pZLTnKAxev1ahuGTwD0k-4" value="Passenger" style="rounded=0;whiteSpace=wrap;html=1;" parent="1" vertex="1">
          <mxGeometry x="477" y="99" width="120" height="70" as="geometry" />
        </mxCell>
        <mxCell id="pZLTnKAxev1ahuGTwD0k-6" value="Activity" style="rounded=0;whiteSpace=wrap;html=1;" parent="1" vertex="1">
          <mxGeometry x="477" y="204" width="120" height="60" as="geometry" />
        </mxCell>
        <mxCell id="pZLTnKAxev1ahuGTwD0k-25" style="edgeStyle=orthogonalEdgeStyle;rounded=0;orthogonalLoop=1;jettySize=auto;html=1;exitX=0.5;exitY=1;exitDx=0;exitDy=0;" parent="1" source="pZLTnKAxev1ahuGTwD0k-8" edge="1">
          <mxGeometry relative="1" as="geometry">
            <mxPoint x="537" y="400" as="targetPoint" />
          </mxGeometry>
        </mxCell>
        <mxCell id="pZLTnKAxev1ahuGTwD0k-8" value="Package" style="rounded=0;whiteSpace=wrap;html=1;" parent="1" vertex="1">
          <mxGeometry x="477" y="304" width="120" height="60" as="geometry" />
        </mxCell>
        <mxCell id="pZLTnKAxev1ahuGTwD0k-26" style="edgeStyle=orthogonalEdgeStyle;rounded=0;orthogonalLoop=1;jettySize=auto;html=1;exitX=1;exitY=0.5;exitDx=0;exitDy=0;entryX=1;entryY=0.5;entryDx=0;entryDy=0;" parent="1" source="pZLTnKAxev1ahuGTwD0k-9" target="pZLTnKAxev1ahuGTwD0k-6" edge="1">
          <mxGeometry relative="1" as="geometry">
            <Array as="points">
              <mxPoint x="690" y="433" />
              <mxPoint x="690" y="250" />
              <mxPoint x="597" y="250" />
            </Array>
          </mxGeometry>
        </mxCell>
        <mxCell id="pZLTnKAxev1ahuGTwD0k-9" value="Destination" style="rounded=0;whiteSpace=wrap;html=1;" parent="1" vertex="1">
          <mxGeometry x="477" y="403" width="120" height="60" as="geometry" />
        </mxCell>
        <mxCell id="pZLTnKAxev1ahuGTwD0k-15" value="Visible to user" style="text;html=1;align=center;verticalAlign=middle;resizable=0;points=[];autosize=1;strokeColor=none;fillColor=none;" parent="1" vertex="1">
          <mxGeometry x="26" y="190" width="100" height="30" as="geometry" />
        </mxCell>
        <mxCell id="pZLTnKAxev1ahuGTwD0k-16" value="PassengerGrade" style="rounded=0;whiteSpace=wrap;html=1;" parent="1" vertex="1">
          <mxGeometry x="670" y="99" width="120" height="70" as="geometry" />
        </mxCell>
        <mxCell id="pZLTnKAxev1ahuGTwD0k-34" style="edgeStyle=orthogonalEdgeStyle;rounded=0;orthogonalLoop=1;jettySize=auto;html=1;exitX=0.5;exitY=0;exitDx=0;exitDy=0;entryX=1;entryY=0.5;entryDx=0;entryDy=0;" parent="1" source="pZLTnKAxev1ahuGTwD0k-28" target="pZLTnKAxev1ahuGTwD0k-6" edge="1">
          <mxGeometry relative="1" as="geometry">
            <Array as="points">
              <mxPoint x="233" y="30" />
              <mxPoint x="810" y="30" />
              <mxPoint x="810" y="234" />
            </Array>
          </mxGeometry>
        </mxCell>
        <mxCell id="pZLTnKAxev1ahuGTwD0k-35" style="edgeStyle=orthogonalEdgeStyle;rounded=0;orthogonalLoop=1;jettySize=auto;html=1;exitX=0.5;exitY=0;exitDx=0;exitDy=0;entryX=1;entryY=0.5;entryDx=0;entryDy=0;" parent="1" source="pZLTnKAxev1ahuGTwD0k-28" target="pZLTnKAxev1ahuGTwD0k-8" edge="1">
          <mxGeometry relative="1" as="geometry">
            <Array as="points">
              <mxPoint x="233" y="30" />
              <mxPoint x="810" y="30" />
              <mxPoint x="810" y="334" />
            </Array>
          </mxGeometry>
        </mxCell>
        <mxCell id="pZLTnKAxev1ahuGTwD0k-36" style="edgeStyle=orthogonalEdgeStyle;rounded=0;orthogonalLoop=1;jettySize=auto;html=1;exitX=0.5;exitY=0;exitDx=0;exitDy=0;" parent="1" source="pZLTnKAxev1ahuGTwD0k-28" target="pZLTnKAxev1ahuGTwD0k-9" edge="1">
          <mxGeometry relative="1" as="geometry">
            <Array as="points">
              <mxPoint x="233" y="30" />
              <mxPoint x="810" y="30" />
              <mxPoint x="810" y="450" />
            </Array>
          </mxGeometry>
        </mxCell>
        <mxCell id="pZLTnKAxev1ahuGTwD0k-41" style="edgeStyle=orthogonalEdgeStyle;rounded=0;orthogonalLoop=1;jettySize=auto;html=1;exitX=0.5;exitY=0;exitDx=0;exitDy=0;entryX=0.5;entryY=0;entryDx=0;entryDy=0;" parent="1" source="pZLTnKAxev1ahuGTwD0k-28" target="pZLTnKAxev1ahuGTwD0k-16" edge="1">
          <mxGeometry relative="1" as="geometry">
            <Array as="points">
              <mxPoint x="233" y="50" />
              <mxPoint x="730" y="50" />
            </Array>
          </mxGeometry>
        </mxCell>
        <mxCell id="pZLTnKAxev1ahuGTwD0k-28" value="Autowire data" style="rounded=0;whiteSpace=wrap;html=1;" parent="1" vertex="1">
          <mxGeometry x="173" y="99" width="120" height="60" as="geometry" />
        </mxCell>
      </root>
    </mxGraphModel>
  </diagram>
</mxfile>
